<?xml version="1.0"?>
<svg version="1.1" xmlns="http://www.w3.org/2000/svg" xmlns:xlink="http://www.w3.org/1999/xlink" width="600" height="600">
    <desc iVinci="yes" version="4.6" gridStep="20" showGrid="yes" snapToGrid="yes" codePlatform="0"/>
    <g id="Layer1" name="Layer 1" opacity="1">
        <g id="Shape1">
            <desc shapeID="1" type="0" basicInfo-basicType="1" basicInfo-roundedRectRadius="12" basicInfo-polygonSides="6" basicInfo-starPoints="5" bounding="rect(-295,-278.5,590,557)" text="" font-familyName="Helvetica" font-pixelSize="20" font-bold="0" font-underline="0" font-alignment="1" strokeStyle="0" markerStart="0" markerEnd="0" shadowEnabled="0" shadowOffsetX="0" shadowOffsetY="2" shadowBlur="4" shadowOpacity="160" blurEnabled="0" blurRadius="4" transform="matrix(1.01695,0,0,1.0772,300.5,300.5)" pers-center="0,0" pers-size="0,0" pers-start="0,0" pers-end="0,0" locked="0" mesh="" flag=""/>
            <path id="shapePath1" d="M0.500061,0.500061 L600.5,0.500061 L600.5,600.5 L0.500061,600.5 L0.500061,0.500061 Z" style="stroke:#323232;stroke-opacity:0;stroke-width:1;stroke-linejoin:miter;stroke-miterlimit:2;stroke-linecap:round;fill-rule:evenodd;fill:#f9cb40;fill-opacity:1;"/>
        </g>
        <g id="Shape2">
            <desc shapeID="2" type="2" basicInfo-basicType="0" basicInfo-roundedRectRadius="12" basicInfo-polygonSides="6" basicInfo-starPoints="5" bounding="rect(-246.5,-70,493,140)" text="Friday Sushi &#10;" font-familyName="Herculanum" font-pixelSize="68" font-bold="1" font-underline="0" font-alignment="1" strokeStyle="0" markerStart="0" markerEnd="0" shadowEnabled="0" shadowOffsetX="0" shadowOffsetY="2" shadowBlur="4" shadowOpacity="160" blurEnabled="0" blurRadius="4" transform="matrix(1,0,0,1,307,130.5)" pers-center="0,0" pers-size="0,0" pers-start="0,0" pers-end="0,0" locked="0" mesh="" flag=""/>
            <path id="shapePath2" d="M108.747,115.255 L112.29,101.043 C113.095,100.907 114.256,100.748 115.775,100.567 C117.293,100.386 118.877,100.216 120.526,100.057 C122.175,99.8982 123.75,99.7622 125.252,99.6489 C126.753,99.5355 127.889,99.4789 128.66,99.4789 C129.113,99.4789 129.549,99.2749 129.968,98.8669 C130.388,98.4589 130.688,97.8922 130.868,97.1669 C131.072,96.3509 130.743,95.9429 129.882,95.9429 C128.794,95.9429 127.3,96.0675 125.402,96.3169 C123.504,96.5662 121.376,96.6909 119.019,96.6909 L113.647,96.6909 C113.794,96.1015 113.927,95.5235 114.045,94.9569 C114.164,94.3902 114.297,93.8122 114.444,93.2229 C114.885,91.4549 115.334,89.6982 115.792,87.9529 C116.249,86.2075 116.71,84.6775 117.174,83.3629 C117.457,82.5922 117.678,82.1162 117.836,81.9349 C117.995,81.7535 118.193,81.6402 118.431,81.5949 C119.235,81.4589 120.323,81.3229 121.695,81.1869 C123.066,81.0509 124.542,80.9035 126.123,80.7449 C127.704,80.5862 129.262,80.4275 130.798,80.2689 C132.333,80.1102 133.645,79.9402 134.733,79.7589 C134.971,79.7135 135.217,79.5889 135.472,79.3849 C135.727,79.1809 135.965,78.9542 136.185,78.7049 C136.406,78.4555 136.607,78.1949 136.788,77.9229 C136.97,77.6509 137.077,77.4469 137.111,77.3109 C137.179,77.0389 137.133,76.8575 136.975,76.7669 C136.816,76.6762 136.669,76.6309 136.533,76.6309 C136.034,76.6309 135.175,76.6649 133.957,76.7329 C132.739,76.8009 131.362,76.8689 129.826,76.9369 C128.291,77.0049 126.676,77.0729 124.981,77.1409 C123.287,77.2089 121.715,77.2429 120.264,77.2429 C118.949,77.2429 117.955,77.1862 117.28,77.0729 C116.606,76.9595 115.974,76.9029 115.385,76.9029 C115.067,76.9029 114.645,77.0502 114.119,77.3449 C113.592,77.6395 113.062,77.9909 112.53,78.3989 C111.997,78.8069 111.53,79.2262 111.128,79.6569 C110.726,80.0875 110.497,80.4162 110.44,80.6429 C110.316,81.1415 110.339,81.7762 110.51,82.5469 C110.68,83.3175 110.941,84.0882 111.293,84.8589 C111.169,85.5389 111.025,86.3889 110.861,87.4089 C110.698,88.4289 110.528,89.4262 110.353,90.4009 C110.178,91.3755 110.026,92.2595 109.896,93.0529 C109.766,93.8462 109.667,94.3789 109.6,94.6509 C109.408,95.4215 109.13,96.1242 108.768,96.7589 C108.406,97.3935 108.134,98.0735 107.953,98.7989 C107.84,99.2522 107.787,99.6489 107.793,99.9889 C107.799,100.329 107.824,100.68 107.87,101.043 C107.916,101.406 107.927,101.814 107.905,102.267 C107.882,102.72 107.775,103.332 107.583,104.103 C106.792,107.276 106.133,109.826 105.608,111.753 C105.082,113.68 104.658,115.198 104.336,116.309 C104.013,117.42 103.759,118.258 103.572,118.825 C103.386,119.392 103.236,119.902 103.123,120.355 C103.066,120.582 103.115,120.797 103.268,121.001 C103.421,121.205 103.611,121.398 103.838,121.579 C104.065,121.76 104.322,121.908 104.612,122.021 C104.901,122.134 105.159,122.191 105.385,122.191 C105.702,122.191 106.037,121.896 106.388,121.307 C106.739,120.718 107.078,120.038 107.406,119.267 C107.734,118.496 108.017,117.726 108.255,116.955 C108.492,116.184 108.656,115.618 108.747,115.255 M151.265,91.9989 C151.4,91.4549 151.601,90.6955 151.866,89.7209 C152.132,88.7462 152.454,87.6809 152.833,86.5249 C153.212,85.3689 153.619,84.1902 154.055,82.9889 C154.49,81.7875 154.952,80.6655 155.438,79.6229 C155.54,79.3962 155.818,79.1922 156.271,79.0109 C156.724,78.8295 157.228,78.6709 157.783,78.5349 C158.339,78.3989 158.874,78.2969 159.39,78.2289 C159.905,78.1609 160.254,78.1269 160.435,78.1269 C160.617,78.1269 160.866,78.1722 161.183,78.2629 C161.501,78.3535 161.832,78.4782 162.178,78.6369 C162.524,78.7955 162.833,78.9655 163.105,79.1469 C163.377,79.3282 163.541,79.4869 163.598,79.6229 C163.78,79.9855 163.922,80.3709 164.024,80.7789 C164.126,81.1869 164.098,81.7082 163.94,82.3429 C163.556,83.8842 162.928,85.4029 162.056,86.8989 C161.615,87.5789 161.13,88.1569 160.604,88.6329 C160.077,89.1089 159.522,89.5169 158.939,89.8569 C158.355,90.1969 157.797,90.4802 157.265,90.7069 C156.732,90.9335 156.239,91.1375 155.786,91.3189 C154.472,91.8629 153.537,92.2482 152.982,92.4749 C152.427,92.7015 152.036,92.8149 151.809,92.8149 C151.628,92.8149 151.469,92.7695 151.333,92.6789 C151.197,92.5882 151.174,92.3615 151.265,91.9989 M156.268,74.9309 L149.962,76.4949 C148.999,76.7215 148.444,77.1295 148.297,77.7189 C148.093,78.5349 148.4,79.2149 149.216,79.7589 C149.364,79.8949 149.384,80.4049 149.277,81.2889 C149.17,82.1729 149.006,83.1929 148.786,84.3489 C148.566,85.5049 148.32,86.6722 148.049,87.8509 C147.778,89.0295 147.546,90.0042 147.354,90.7749 C146.924,92.4975 146.43,94.3902 145.87,96.4529 C145.31,98.5155 144.765,100.476 144.233,102.335 C143.702,104.194 143.241,105.814 142.851,107.197 C142.461,108.58 142.221,109.452 142.13,109.815 C141.87,110.676 141.588,111.402 141.282,111.991 C140.976,112.58 140.696,113.068 140.441,113.453 C140.187,113.838 139.974,114.144 139.805,114.371 C139.635,114.598 139.522,114.824 139.465,115.051 C139.397,115.323 139.514,115.584 139.814,115.833 C140.115,116.082 140.506,116.286 140.987,116.445 C141.469,116.604 141.968,116.74 142.484,116.853 C142.999,116.966 143.416,117.023 143.733,117.023 C144.368,117.023 144.833,116.932 145.127,116.751 C145.422,116.57 145.625,116.252 145.738,115.799 C145.829,115.436 145.897,115.028 145.942,114.575 C145.987,114.122 146.068,113.521 146.187,112.773 C146.305,112.025 146.478,111.062 146.704,109.883 C146.929,108.704 147.274,107.186 147.737,105.327 L148.195,103.491 C148.466,102.403 148.763,101.304 149.086,100.193 C149.408,99.0822 149.727,98.0735 150.044,97.1669 C151.336,97.4389 152.889,98.1642 154.703,99.3429 C156.518,100.522 158.428,101.904 160.435,103.491 C162.442,105.078 164.455,106.778 166.474,108.591 C168.492,110.404 170.369,112.059 172.104,113.555 C173.839,115.051 175.353,116.298 176.646,117.295 C177.938,118.292 178.834,118.791 179.333,118.791 C179.605,118.791 180.044,118.621 180.65,118.281 C181.256,117.941 181.876,117.544 182.51,117.091 C183.145,116.638 183.711,116.184 184.209,115.731 C184.708,115.278 184.985,114.938 185.042,114.711 C185.121,114.394 185.104,114.144 184.99,113.963 C184.877,113.782 184.729,113.691 184.548,113.691 C182.689,113.691 180.961,113.17 179.362,112.127 C178.75,111.674 177.962,111.107 176.998,110.427 C176.034,109.747 174.991,108.976 173.868,108.115 C172.746,107.254 171.564,106.358 170.322,105.429 C169.08,104.5 167.853,103.559 166.64,102.607 C165.018,101.292 163.504,100.091 162.098,99.0029 C160.692,97.9149 159.473,96.9855 158.441,96.2149 C157.409,95.4442 156.735,94.9682 156.417,94.7869 C156.1,94.6055 155.958,94.4469 155.992,94.3109 C156.026,94.1749 156.17,94.0502 156.425,93.9369 C156.68,93.8235 157.397,93.5855 158.575,93.2229 C159.459,92.9509 160.436,92.5769 161.507,92.1009 C162.578,91.6249 163.628,91.0015 164.659,90.2309 C165.69,89.4602 166.622,88.4969 167.454,87.3409 C168.286,86.1849 168.906,84.7909 169.313,83.1589 C169.573,82.1162 169.512,81.0849 169.132,80.0649 C168.752,79.0449 168.119,78.1269 167.235,77.3109 C166.35,76.4949 165.233,75.8375 163.884,75.3389 C162.535,74.8402 160.999,74.5909 159.277,74.5909 C158.551,74.5909 157.976,74.6249 157.551,74.6929 C157.126,74.7609 156.699,74.8402 156.268,74.9309 M191.929,95.5349 C191.036,99.1162 190.287,102.165 189.683,104.681 C189.078,107.197 188.592,109.282 188.225,110.937 C187.858,112.592 187.615,113.884 187.496,114.813 C187.378,115.742 187.353,116.434 187.421,116.887 C187.49,117.34 187.634,117.624 187.855,117.737 C188.077,117.85 188.346,117.907 188.663,117.907 C189.434,117.907 190.099,117.465 190.66,116.581 C191.22,115.697 191.839,113.895 192.518,111.175 C194.552,103.015 196.211,96.5889 197.494,91.8969 C198.777,87.2049 199.758,83.8615 200.437,81.8669 C200.674,81.0962 200.966,80.4275 201.311,79.8609 C201.656,79.2942 201.897,78.7389 202.032,78.1949 C202.1,77.9229 201.865,77.5942 201.326,77.2089 C200.788,76.8235 200.269,76.6309 199.77,76.6309 C199.453,76.6309 198.969,76.8009 198.317,77.1409 C197.666,77.4809 197.011,77.8775 196.354,78.3309 C195.697,78.7842 195.103,79.2602 194.57,79.7589 C194.038,80.2575 193.738,80.6429 193.67,80.9149 C193.58,81.2775 193.566,81.6515 193.628,82.0369 C193.691,82.4222 193.887,82.8642 194.216,83.3629 C194.409,83.6802 194.474,84.0542 194.412,84.4849 C194.35,84.9155 194.24,85.4482 194.082,86.0829 C193.788,87.2615 193.505,88.5309 193.234,89.8909 C192.963,91.2509 192.528,93.1322 191.929,95.5349 M218.806,99.8189 L223.604,80.5749 C224.238,80.2122 225.045,79.8835 226.025,79.5889 C227.006,79.2942 227.881,79.1469 228.652,79.1469 C229.286,79.1469 230.199,79.3962 231.389,79.8949 C232.579,80.3935 233.699,81.2209 234.748,82.3769 C235.797,83.5329 236.583,85.0629 237.106,86.9669 C237.628,88.8709 237.534,91.2509 236.822,94.1069 C235.85,98.0055 234.701,101.202 233.377,103.695 C232.053,106.188 230.575,108.16 228.944,109.611 C227.313,111.062 225.557,112.059 223.676,112.603 C221.795,113.147 219.789,113.419 217.659,113.419 C216.843,113.419 216.31,113.192 216.06,112.739 C215.811,112.286 215.9,111.198 216.33,109.475 C216.68,108.07 217.073,106.54 217.508,104.885 C217.944,103.23 218.376,101.542 218.806,99.8189 M216.148,117.295 C216.42,117.295 216.939,117.216 217.704,117.057 C218.468,116.898 219.372,116.683 220.415,116.411 C221.457,116.139 222.596,115.799 223.831,115.391 C225.066,114.983 226.278,114.53 227.468,114.031 C228.658,113.532 229.771,112.977 230.807,112.365 C231.844,111.753 232.696,111.107 233.365,110.427 C234.463,109.294 235.429,108.149 236.261,106.993 C237.093,105.837 237.854,104.556 238.545,103.151 C239.235,101.746 239.872,100.148 240.454,98.3569 C241.036,96.5662 241.622,94.4922 242.209,92.1349 C242.854,89.5509 242.974,87.3409 242.57,85.5049 C242.167,83.6689 241.472,82.1389 240.485,80.9149 C239.498,79.6909 238.322,78.7275 236.955,78.0249 C235.589,77.3222 234.283,76.7895 233.036,76.4269 C231.789,76.0642 230.701,75.8375 229.771,75.7469 C228.842,75.6562 228.309,75.6109 228.173,75.6109 C227.856,75.6109 227.377,75.6675 226.737,75.7809 C226.097,75.8942 225.244,76.0869 224.179,76.3589 L219.08,77.7189 C217.811,78.0815 216.975,78.3875 216.573,78.6369 C216.171,78.8862 215.89,79.3282 215.732,79.9629 C215.608,80.4615 215.656,80.7675 215.877,80.8809 C216.098,80.9942 216.351,81.0735 216.634,81.1189 C216.917,81.1642 217.198,81.2209 217.476,81.2889 C217.753,81.3569 217.887,81.5949 217.876,82.0029 C217.853,82.6375 217.789,83.4422 217.682,84.4169 C217.575,85.3915 217.437,86.4455 217.267,87.5789 C217.098,88.7122 216.903,89.8569 216.683,91.0129 C216.463,92.1689 216.228,93.2455 215.98,94.2429 C215.369,96.6909 214.663,99.3429 213.86,102.199 C213.057,105.055 212.249,107.843 211.435,110.563 C211.163,111.47 210.852,112.172 210.501,112.671 C210.15,113.17 209.816,113.555 209.499,113.827 C209.182,114.099 208.896,114.337 208.641,114.541 C208.386,114.745 208.213,115.028 208.123,115.391 C208.033,115.754 208.138,116.014 208.438,116.173 C208.738,116.332 209.263,116.456 210.011,116.547 L213.7,117.023 C214.051,117.068 214.434,117.125 214.848,117.193 C215.261,117.261 215.695,117.295 216.148,117.295 M270.75,91.1149 L278.713,101.995 C278.51,102.086 278.218,102.165 277.838,102.233 C277.458,102.301 276.9,102.358 276.164,102.403 C275.427,102.448 274.467,102.482 273.282,102.505 C272.098,102.528 270.622,102.539 268.854,102.539 C267.222,102.539 265.955,102.528 265.054,102.505 C264.153,102.482 263.482,102.448 263.04,102.403 C262.598,102.358 262.334,102.278 262.249,102.165 C262.164,102.052 262.144,101.904 262.189,101.723 C262.246,101.496 262.404,101.224 262.665,100.907 C262.925,100.59 263.48,99.9095 264.329,98.8669 L270.75,91.1149 M263.178,105.667 L281.198,105.667 C284.624,110.291 286.83,113.623 287.818,115.663 C287.977,115.935 288.084,116.23 288.141,116.547 C288.198,116.864 288.408,117.023 288.771,117.023 L290.811,117.023 C291.083,117.023 291.428,116.91 291.847,116.683 C292.267,116.456 292.7,116.173 293.147,115.833 C293.595,115.493 293.985,115.153 294.32,114.813 C294.654,114.473 294.843,114.212 294.889,114.031 C294.99,113.623 294.97,113.34 294.828,113.181 C294.687,113.022 294.48,112.898 294.208,112.807 C293.936,112.716 293.613,112.603 293.238,112.467 C292.864,112.331 292.502,112.059 292.15,111.651 C290.279,109.52 288.566,107.526 287.012,105.667 C285.458,103.808 283.867,101.734 282.239,99.4449 C280.611,97.1555 278.839,94.4922 276.921,91.4549 C275.004,88.4175 272.763,84.6775 270.199,80.2349 C269.858,79.6002 269.529,78.9655 269.212,78.3309 C268.894,77.6962 268.724,77.2429 268.701,76.9709 C268.61,76.4269 268.524,75.9962 268.445,75.6789 C268.365,75.3615 268.221,75.1235 268.011,74.9649 C267.801,74.8062 267.52,74.7042 267.169,74.6589 C266.818,74.6135 266.325,74.5909 265.69,74.5909 C265.373,74.5909 264.953,74.6815 264.432,74.8629 C263.911,75.0442 263.393,75.2595 262.877,75.5089 C262.362,75.7582 261.903,76.0075 261.501,76.2569 C261.099,76.5062 260.875,76.7215 260.83,76.9029 C260.739,77.2655 260.887,77.5829 261.272,77.8549 C261.658,78.1269 262.083,78.6029 262.548,79.2829 L266.717,84.9269 C267.874,86.4682 268.34,87.6922 268.113,88.5989 C268.012,89.0069 267.607,89.7209 266.899,90.7409 C266.192,91.7609 265.306,92.9509 264.241,94.3109 C263.177,95.6709 261.968,97.1555 260.615,98.7649 C259.262,100.374 257.888,101.972 256.496,103.559 C255.103,105.146 253.727,106.664 252.368,108.115 C251.009,109.566 249.791,110.812 248.715,111.855 C247.934,112.626 247.26,113.238 246.693,113.691 C246.127,114.144 245.793,114.575 245.691,114.983 C245.567,115.482 245.856,115.867 246.559,116.139 C247.262,116.411 248.248,116.547 249.517,116.547 C250.152,116.547 250.548,116.32 250.707,115.867 C250.865,115.414 251.109,114.983 251.437,114.575 L256.312,108.659 C257.229,107.526 258.172,106.744 259.141,106.313 C260.11,105.882 261.455,105.667 263.178,105.667 M304.943,122.191 C305.351,122.191 305.872,121.828 306.506,121.103 C307.14,120.378 307.845,119.46 308.62,118.349 C309.396,117.238 310.217,115.992 311.083,114.609 C311.949,113.226 312.778,111.9 313.571,110.631 C314.363,109.362 315.079,108.217 315.719,107.197 C316.359,106.177 316.871,105.44 317.256,104.987 L334.123,84.2469 C334.769,83.4762 335.329,82.8642 335.805,82.4109 C336.281,81.9575 336.68,81.5835 337.003,81.2889 C337.325,80.9942 337.577,80.7562 337.759,80.5749 C337.94,80.3935 338.053,80.2122 338.098,80.0309 C338.189,79.6682 338.069,79.3282 337.741,79.0109 C337.412,78.6935 337.003,78.4215 336.516,78.1949 C336.029,77.9682 335.521,77.7755 334.994,77.6169 C334.467,77.4582 334.045,77.3789 333.727,77.3789 C333.229,77.3789 332.846,77.5035 332.58,77.7529 C332.314,78.0022 332.068,78.5802 331.842,79.4869 C331.616,80.3935 330.962,81.6515 329.881,83.2609 C328.8,84.8702 327.489,86.6722 325.949,88.6669 C324.409,90.6615 322.747,92.7809 320.964,95.0249 C319.18,97.2689 317.473,99.4789 315.843,101.655 C315.638,100.295 315.141,98.6515 314.352,96.7249 C313.563,94.7982 312.72,92.8149 311.823,90.7749 C310.927,88.7349 310.095,86.7515 309.329,84.8249 C308.563,82.8982 308.094,81.2775 307.923,79.9629 C307.866,79.4642 307.863,78.9769 307.914,78.5009 C307.964,78.0249 308.004,77.5942 308.032,77.2089 C308.06,76.8235 308.037,76.5062 307.963,76.2569 C307.889,76.0075 307.694,75.8829 307.376,75.8829 C307.059,75.8829 306.566,76.0415 305.898,76.3589 C305.229,76.6762 304.569,77.0502 303.918,77.4809 C303.267,77.9115 302.678,78.3649 302.151,78.8409 C301.624,79.3169 301.321,79.7135 301.242,80.0309 C301.14,80.4389 301.2,80.9262 301.422,81.4929 C301.643,82.0595 301.989,82.7622 302.46,83.6009 C302.931,84.4395 303.521,85.4822 304.23,86.7289 C304.939,87.9755 305.725,89.5055 306.588,91.3189 C307.859,94.0389 308.863,96.2375 309.601,97.9149 C310.339,99.5922 310.875,100.941 311.21,101.961 C311.545,102.981 311.733,103.774 311.773,104.341 C311.813,104.908 311.765,105.463 311.63,106.007 C311.302,107.322 310.77,108.636 310.034,109.951 C309.299,111.266 308.5,112.467 307.64,113.555 C306.779,114.643 305.907,115.55 305.024,116.275 C304.14,117 303.364,117.431 302.695,117.567 C301.982,117.703 301.52,117.873 301.31,118.077 C301.101,118.281 300.962,118.519 300.894,118.791 C300.838,119.018 300.946,119.312 301.218,119.675 C301.49,120.038 301.839,120.412 302.264,120.797 C302.689,121.182 303.151,121.511 303.65,121.783 C304.149,122.055 304.58,122.191 304.943,122.191 M354.484,113.759 C354.371,114.212 354.312,114.632 354.307,115.017 C354.301,115.402 354.316,115.799 354.35,116.207 C354.384,116.434 354.608,116.672 355.022,116.921 C355.436,117.17 355.921,117.408 356.476,117.635 C357.031,117.862 357.61,118.043 358.21,118.179 C358.811,118.315 359.315,118.383 359.723,118.383 C361.355,118.383 362.8,117.907 364.058,116.955 C365.315,116.003 366.399,114.926 367.311,113.725 C368.222,112.524 368.933,111.356 369.442,110.223 C369.951,109.09 370.251,108.342 370.341,107.979 C370.839,105.984 370.976,103.888 370.754,101.689 C370.531,99.4902 370.213,97.3595 369.797,95.2969 C369.382,93.2342 369.013,91.3075 368.689,89.5169 C368.364,87.7262 368.349,86.2415 368.643,85.0629 C369.118,83.1589 370.174,81.5609 371.81,80.2689 C373.447,78.9769 375.773,78.2855 378.787,78.1949 C380.068,78.1495 380.912,77.9909 381.32,77.7189 C381.728,77.4469 382.045,76.8575 382.271,75.9509 C382.361,75.5882 382.211,75.2822 381.82,75.0329 C381.429,74.7835 380.958,74.5795 380.408,74.4209 C379.859,74.2622 379.286,74.1489 378.691,74.0809 C378.096,74.0129 377.64,73.9789 377.323,73.9789 C375.872,73.9789 374.345,74.5115 372.742,75.5769 C371.139,76.6422 369.647,77.9002 368.265,79.3509 C366.884,80.8015 365.709,82.2409 364.741,83.6689 C363.773,85.0969 363.193,86.1962 363,86.9669 C362.786,87.8282 362.741,88.8709 362.866,90.0949 C362.992,91.3189 363.2,92.6222 363.49,94.0049 C363.78,95.3875 364.115,96.8155 364.495,98.2889 C364.876,99.7622 365.211,101.19 365.501,102.573 C365.791,103.956 365.999,105.259 366.124,106.483 C366.25,107.707 366.2,108.772 365.974,109.679 C365.725,110.676 365.122,111.594 364.165,112.433 C363.208,113.272 362.117,113.691 360.893,113.691 C359.624,113.691 358.612,113.476 357.858,113.045 C357.104,112.614 356.41,112.399 355.775,112.399 C355.549,112.399 355.308,112.501 355.053,112.705 C354.798,112.909 354.609,113.26 354.484,113.759 M392.628,78.8069 C391.769,82.2522 390.987,85.6182 390.281,88.9049 C389.575,92.1915 389.001,95.2175 388.561,97.9829 C388.121,100.748 387.837,103.162 387.708,105.225 C387.579,107.288 387.656,108.84 387.94,109.883 C388.202,110.835 388.735,111.696 389.54,112.467 C390.345,113.238 391.261,113.884 392.287,114.405 C393.313,114.926 394.381,115.323 395.492,115.595 C396.603,115.867 397.612,116.003 398.518,116.003 C398.972,116.003 399.431,115.98 399.895,115.935 C400.36,115.89 400.864,115.776 401.408,115.595 C403.55,114.824 405.801,113.657 408.163,112.093 C410.525,110.529 412.584,108.41 414.339,105.735 C414.791,105.01 415.349,103.956 416.011,102.573 C416.673,101.19 417.363,99.6489 418.082,97.9489 C418.8,96.2489 419.527,94.4695 420.263,92.6109 C420.998,90.7522 421.674,88.9955 422.291,87.3409 C422.907,85.6862 423.445,84.2129 423.903,82.9209 C424.361,81.6289 424.658,80.7109 424.793,80.1669 C424.985,79.3962 424.778,78.8182 424.172,78.4329 C423.565,78.0475 422.831,77.8549 421.97,77.8549 C421.244,77.8549 420.604,77.9682 420.049,78.1949 C419.494,78.4215 419.143,78.8295 418.996,79.4189 C418.939,79.6455 418.911,79.9402 418.911,80.3029 C418.912,80.6655 418.872,81.1869 418.793,81.8669 C418.715,82.5469 418.585,83.4309 418.404,84.5189 C418.224,85.6069 417.93,86.9669 417.523,88.5989 C417.218,89.8229 416.828,91.2509 416.353,92.8829 C415.878,94.5149 415.31,96.2035 414.648,97.9489 C413.986,99.6942 413.208,101.406 412.314,103.083 C411.419,104.76 410.398,106.268 409.248,107.605 C408.099,108.942 406.81,110.019 405.383,110.835 C403.955,111.651 402.38,112.059 400.658,112.059 C399.842,112.059 398.975,111.9 398.056,111.583 C397.138,111.266 396.282,110.835 395.489,110.291 C394.695,109.747 394,109.124 393.405,108.421 C392.809,107.718 392.449,106.982 392.324,106.211 C391.971,104.534 391.984,102.618 392.362,100.465 C392.741,98.3115 393.291,95.7842 394.015,92.8829 C394.704,90.1175 395.372,87.9415 396.016,86.3549 C396.661,84.7682 397.227,83.5442 397.714,82.6829 C398.201,81.8215 398.617,81.1982 398.962,80.8129 C399.308,80.4275 399.526,80.0535 399.616,79.6909 C399.706,79.3282 399.567,78.9315 399.199,78.5009 C398.83,78.0702 398.388,77.6622 397.872,77.2769 C397.356,76.8915 396.826,76.5629 396.282,76.2909 C395.738,76.0189 395.307,75.8829 394.989,75.8829 C394.309,75.8829 393.811,76.1095 393.494,76.5629 C393.177,77.0162 392.888,77.7642 392.628,78.8069 M428.781,113.759 C428.668,114.212 428.609,114.632 428.604,115.017 C428.598,115.402 428.613,115.799 428.647,116.207 C428.681,116.434 428.905,116.672 429.319,116.921 C429.733,117.17 430.217,117.408 430.773,117.635 C431.328,117.862 431.906,118.043 432.507,118.179 C433.108,118.315 433.612,118.383 434.02,118.383 C435.652,118.383 437.097,117.907 438.354,116.955 C439.612,116.003 440.696,114.926 441.608,113.725 C442.519,112.524 443.23,111.356 443.739,110.223 C444.248,109.09 444.548,108.342 444.638,107.979 C445.136,105.984 445.273,103.888 445.051,101.689 C444.828,99.4902 444.509,97.3595 444.094,95.2969 C443.679,93.2342 443.31,91.3075 442.985,89.5169 C442.661,87.7262 442.646,86.2415 442.94,85.0629 C443.415,83.1589 444.47,81.5609 446.107,80.2689 C447.744,78.9769 450.07,78.2855 453.084,78.1949 C454.365,78.1495 455.209,77.9909 455.617,77.7189 C456.025,77.4469 456.342,76.8575 456.568,75.9509 C456.658,75.5882 456.508,75.2822 456.117,75.0329 C455.726,74.7835 455.255,74.5795 454.705,74.4209 C454.156,74.2622 453.583,74.1489 452.988,74.0809 C452.393,74.0129 451.937,73.9789 451.62,73.9789 C450.169,73.9789 448.642,74.5115 447.039,75.5769 C445.436,76.6422 443.944,77.9002 442.562,79.3509 C441.18,80.8015 440.006,82.2409 439.038,83.6689 C438.069,85.0969 437.489,86.1962 437.297,86.9669 C437.082,87.8282 437.038,88.8709 437.163,90.0949 C437.289,91.3189 437.497,92.6222 437.786,94.0049 C438.076,95.3875 438.412,96.8155 438.792,98.2889 C439.173,99.7622 439.508,101.19 439.798,102.573 C440.088,103.956 440.296,105.259 440.421,106.483 C440.547,107.707 440.497,108.772 440.271,109.679 C440.022,110.676 439.419,111.594 438.462,112.433 C437.505,113.272 436.414,113.691 435.19,113.691 C433.921,113.691 432.909,113.476 432.155,113.045 C431.401,112.614 430.707,112.399 430.072,112.399 C429.846,112.399 429.605,112.501 429.35,112.705 C429.095,112.909 428.906,113.26 428.781,113.759 M463.412,113.351 L466.295,101.791 C466.385,101.428 466.512,101.009 466.676,100.533 C466.84,100.057 467.036,99.6375 467.262,99.2749 C467.942,99.0935 469.061,98.9235 470.619,98.7649 C472.177,98.6062 473.874,98.4815 475.71,98.3909 C477.546,98.3002 479.368,98.2209 481.176,98.1529 C482.983,98.0849 484.499,98.0509 485.723,98.0509 L482.453,113.895 C482.317,114.62 482.346,115.096 482.539,115.323 C482.732,115.55 483.145,115.663 483.78,115.663 C484.097,115.663 484.415,115.527 484.732,115.255 C485.049,114.983 485.346,114.654 485.624,114.269 C485.901,113.884 486.144,113.498 486.354,113.113 C486.563,112.728 486.702,112.399 486.77,112.127 L490.246,98.7309 C490.381,98.1869 490.676,97.9149 491.129,97.9149 C491.356,97.9149 491.554,97.9375 491.724,97.9829 C491.894,98.0282 492.047,98.0509 492.183,98.0509 C492.727,98.0509 493.223,97.6995 493.67,96.9969 C494.117,96.2942 494.392,95.7389 494.493,95.3309 C494.606,94.8775 494.575,94.5942 494.399,94.4809 C494.224,94.3675 493.954,94.3109 493.592,94.3109 C493.229,94.3109 492.852,94.3222 492.461,94.3449 C492.07,94.3675 491.688,94.4015 491.314,94.4469 C491.483,93.7669 491.695,92.9622 491.95,92.0329 C492.204,91.1035 492.475,90.1515 492.764,89.1769 C493.052,88.2022 493.36,87.2389 493.688,86.2869 C494.016,85.3349 494.35,84.4509 494.69,83.6349 C495.006,82.9095 495.312,82.3202 495.606,81.8669 C495.901,81.4135 496.153,81.0395 496.362,80.7449 C496.572,80.4502 496.758,80.2009 496.923,79.9969 C497.087,79.7929 497.191,79.6002 497.237,79.4189 C497.395,78.7842 497.021,78.4669 496.114,78.4669 C495.706,78.4669 495.171,78.5235 494.508,78.6369 C493.845,78.7502 493.182,78.9089 492.519,79.1129 C491.856,79.3169 491.264,79.5549 490.743,79.8269 C490.222,80.0989 489.922,80.3935 489.843,80.7109 C489.684,81.3455 489.509,82.3202 489.318,83.6349 C489.126,84.9495 488.832,86.4002 488.436,87.9869 C488.143,89.1655 487.843,90.3215 487.538,91.4549 C487.233,92.5882 486.944,93.6082 486.673,94.5149 L468.585,94.5149 C469.094,92.8375 469.58,91.1149 470.043,89.3469 C470.507,87.5789 470.942,85.8789 471.349,84.2469 C471.666,83.1589 472.09,82.2295 472.622,81.4589 C473.154,80.6882 473.471,80.0989 473.573,79.6909 C473.629,79.4642 473.499,79.2149 473.181,78.9429 C472.864,78.6709 472.464,78.4102 471.982,78.1609 C471.5,77.9115 470.988,77.6962 470.443,77.5149 C469.899,77.3335 469.423,77.2429 469.015,77.2429 C468.517,77.2429 468.007,77.3789 467.485,77.6509 C466.964,77.9229 466.491,78.2289 466.067,78.5689 C465.642,78.9089 465.288,79.2375 465.005,79.5549 C464.722,79.8722 464.563,80.0989 464.529,80.2349 C464.439,80.5975 464.507,80.9149 464.734,81.1869 C464.961,81.4589 465.23,81.7422 465.542,82.0369 C465.854,82.3315 466.109,82.6715 466.308,83.0569 C466.506,83.4422 466.538,83.9069 466.402,84.4509 C466.233,85.3122 466.024,86.3322 465.775,87.5109 C465.527,88.6895 465.244,89.9589 464.928,91.3189 C464.611,92.6789 464.278,94.0615 463.927,95.4669 C463.588,96.8269 463.261,98.1415 462.944,99.4109 C462.232,102.267 461.492,104.964 460.723,107.503 C459.954,110.042 459.275,112.49 458.688,114.847 C458.552,115.391 458.538,115.81 458.646,116.105 C458.754,116.4 459.057,116.547 459.556,116.547 C461.596,116.547 462.881,115.482 463.412,113.351 M511.226,95.5349 C510.333,99.1162 509.584,102.165 508.98,104.681 C508.375,107.197 507.889,109.282 507.522,110.937 C507.155,112.592 506.912,113.884 506.793,114.813 C506.675,115.742 506.65,116.434 506.718,116.887 C506.787,117.34 506.931,117.624 507.152,117.737 C507.373,117.85 507.643,117.907 507.96,117.907 C508.731,117.907 509.396,117.465 509.957,116.581 C510.517,115.697 511.136,113.895 511.814,111.175 C513.849,103.015 515.508,96.5889 516.791,91.8969 C518.074,87.2049 519.055,83.8615 519.734,81.8669 C519.971,81.0962 520.263,80.4275 520.608,79.8609 C520.953,79.2942 521.194,78.7389 521.329,78.1949 C521.397,77.9229 521.162,77.5942 520.623,77.2089 C520.084,76.8235 519.566,76.6309 519.067,76.6309 C518.75,76.6309 518.265,76.8009 517.614,77.1409 C516.963,77.4809 516.308,77.8775 515.651,78.3309 C514.994,78.7842 514.4,79.2602 513.867,79.7589 C513.335,80.2575 513.035,80.6429 512.967,80.9149 C512.877,81.2775 512.863,81.6515 512.925,82.0369 C512.988,82.4222 513.184,82.8642 513.513,83.3629 C513.706,83.6802 513.771,84.0542 513.709,84.4849 C513.647,84.9155 513.537,85.4482 513.379,86.0829 C513.085,87.2615 512.802,88.5309 512.531,89.8909 C512.26,91.2509 511.825,93.1322 511.226,95.5349 Z" style="stroke:none;fill-rule:nonzero;fill:#ff715b;fill-opacity:1;"/>
        </g>
        <g id="Shape3">
            <desc shapeID="3" type="2" basicInfo-basicType="0" basicInfo-roundedRectRadius="12" basicInfo-polygonSides="6" basicInfo-starPoints="5" bounding="rect(-256.5,-80,513,160)" text="&#10;12 Pieces For $15.&#10;24 Pieces For $20." font-familyName="Hiragino Sans GB" font-pixelSize="40" font-bold="0" font-underline="0" font-alignment="1" strokeStyle="0" markerStart="0" markerEnd="0" shadowEnabled="0" shadowOffsetX="0" shadowOffsetY="2" shadowBlur="4" shadowOpacity="160" blurEnabled="0" blurRadius="4" transform="matrix(1,0,0,1,297,460.5)" pers-center="0,0" pers-size="0,0" pers-start="0,0" pers-end="0,0" locked="0" mesh="" flag=""/>
            <path id="shapePath3" d="M116.221,448.008 C117.381,447.848 118.421,447.767 119.701,447.767 L121.861,447.767 L121.861,470.927 C121.861,472.767 121.781,474.047 121.541,475.448 L125.341,475.448 C125.101,473.967 125.021,472.807 125.021,470.927 L125.021,451.487 C125.021,449.328 125.141,447.288 125.381,444.848 C124.061,445.008 123.421,445.047 122.061,445.047 L119.541,445.047 C118.021,445.047 117.261,445.008 116.221,444.848 L116.221,448.008 M154.967,475.448 C156.967,475.448 158.287,475.527 159.887,475.688 L159.887,472.328 C158.367,472.527 157.007,472.608 155.007,472.608 L142.247,472.608 C142.727,470.688 143.287,469.608 144.527,467.967 C145.847,466.288 147.127,465.168 150.287,463.047 C154.847,460.008 155.887,459.247 157.087,457.888 C158.647,456.168 159.447,454.247 159.447,452.207 C159.447,447.487 155.567,444.448 149.527,444.448 C146.007,444.448 143.287,445.487 141.487,447.527 C140.167,449.008 139.567,450.408 138.967,453.288 L142.327,453.848 C142.607,451.848 142.967,450.888 143.727,449.807 C144.927,448.087 146.887,447.207 149.527,447.207 C153.607,447.207 156.167,449.168 156.167,452.207 C156.167,454.647 154.847,456.408 150.887,459.087 C146.247,462.247 146.167,462.288 144.767,463.487 C142.247,465.647 140.567,467.848 139.567,470.367 C138.967,471.888 138.847,472.487 138.407,475.647 C139.687,475.487 140.287,475.448 142.807,475.448 L154.967,475.448 M182.465,475.448 C182.225,474.087 182.145,472.848 182.145,470.927 L182.145,463.047 L191.065,463.047 C197.305,463.047 200.905,459.647 200.905,453.767 C200.905,448.207 197.425,445.047 191.265,445.047 L183.105,445.047 C181.265,445.047 180.145,445.008 178.705,444.927 C178.945,446.608 179.025,447.848 179.025,449.487 L179.025,470.967 C179.025,472.848 178.945,474.008 178.705,475.448 L182.465,475.448 M182.145,460.288 L182.145,447.807 L191.065,447.807 C195.385,447.807 197.705,449.927 197.705,453.927 C197.705,458.008 195.305,460.288 191.065,460.288 L182.145,460.288 M204.894,445.047 L204.894,448.608 L208.774,448.608 L208.774,445.047 L204.894,445.047 M205.014,453.888 C205.214,455.288 205.294,456.487 205.294,458.408 L205.294,470.927 C205.294,472.608 205.214,473.728 205.014,475.448 L208.614,475.448 C208.414,473.888 208.334,472.767 208.334,470.927 L208.334,458.408 C208.334,456.408 208.414,455.288 208.614,453.888 L205.014,453.888 M233.329,465.128 C233.249,464.047 233.089,462.487 233.049,462.047 C232.249,456.688 228.529,453.367 223.369,453.367 C217.369,453.367 213.449,457.848 213.449,464.688 C213.449,471.608 217.409,476.008 223.689,476.008 C226.609,476.008 229.049,475.047 230.929,473.207 C231.849,472.288 232.369,471.568 233.129,469.888 L230.329,468.767 C229.209,471.848 226.969,473.448 223.729,473.448 C221.329,473.448 219.369,472.487 218.089,470.728 C217.009,469.288 216.609,467.807 216.489,465.128 L233.329,465.128 M216.609,462.608 C216.849,461.087 217.049,460.367 217.609,459.367 C218.809,457.128 220.849,455.888 223.289,455.888 C225.209,455.888 226.769,456.487 228.009,457.688 C229.289,458.927 229.889,460.367 230.129,462.608 L216.609,462.608 M256.205,459.568 C255.725,458.408 255.365,457.767 254.805,457.008 C253.085,454.608 250.405,453.328 247.085,453.328 C240.965,453.328 236.965,457.848 236.965,464.767 C236.965,471.608 241.005,475.967 247.285,475.967 C250.525,475.967 253.085,474.807 254.845,472.608 C255.525,471.728 255.925,470.967 256.485,469.527 L253.485,468.728 C253.205,469.688 253.005,470.168 252.605,470.767 C251.565,472.408 249.685,473.328 247.405,473.328 C242.925,473.328 240.045,469.967 240.045,464.688 C240.045,459.328 242.845,455.888 247.245,455.888 C250.205,455.888 252.125,457.367 253.285,460.487 L256.205,459.568 M279.954,465.128 C279.874,464.047 279.714,462.487 279.674,462.047 C278.874,456.688 275.154,453.367 269.994,453.367 C263.994,453.367 260.074,457.848 260.074,464.688 C260.074,471.608 264.034,476.008 270.314,476.008 C273.234,476.008 275.674,475.047 277.554,473.207 C278.474,472.288 278.994,471.568 279.754,469.888 L276.954,468.767 C275.834,471.848 273.594,473.448 270.354,473.448 C267.954,473.448 265.994,472.487 264.714,470.728 C263.634,469.288 263.234,467.807 263.114,465.128 L279.954,465.128 M263.234,462.608 C263.474,461.087 263.674,460.367 264.234,459.367 C265.434,457.128 267.474,455.888 269.914,455.888 C271.834,455.888 273.394,456.487 274.634,457.688 C275.914,458.927 276.514,460.367 276.754,462.608 L263.234,462.608 M283.43,469.608 C283.83,471.247 284.11,471.927 284.71,472.767 C286.19,474.807 288.99,475.888 292.63,475.888 C298.11,475.888 301.51,473.408 301.51,469.408 C301.51,467.767 300.83,466.247 299.59,465.247 C298.39,464.328 297.11,463.848 293.23,462.967 C290.75,462.448 289.71,462.128 288.79,461.608 C287.91,461.128 287.43,460.328 287.43,459.408 C287.43,457.288 289.51,455.807 292.43,455.807 C294.23,455.807 295.67,456.328 296.59,457.328 C297.15,457.888 297.35,458.367 297.59,459.448 L300.75,458.927 C300.23,457.087 299.67,456.168 298.63,455.288 C297.19,454.008 295.07,453.367 292.35,453.367 C289.67,453.367 287.51,454.087 286.11,455.448 C284.99,456.527 284.39,457.888 284.39,459.328 C284.39,461.087 285.15,462.568 286.55,463.527 C287.91,464.448 289.27,464.927 292.47,465.608 C295.43,466.207 296.23,466.448 297.19,467.047 C298.03,467.568 298.43,468.408 298.43,469.527 C298.43,471.888 296.23,473.367 292.75,473.367 C290.71,473.367 289.11,472.888 288.11,471.967 C287.31,471.247 286.99,470.527 286.71,469.047 L283.43,469.608 M323.091,461.008 L332.451,461.008 C334.531,461.008 335.691,461.087 337.011,461.288 L337.011,457.927 C335.531,458.128 334.371,458.207 332.451,458.207 L323.091,458.207 L323.091,447.888 L334.611,447.888 C336.731,447.888 337.891,447.967 339.211,448.168 L339.211,444.767 C337.691,444.967 336.571,445.047 334.611,445.047 L324.011,445.047 C322.091,445.047 321.011,445.008 319.611,444.927 C319.851,446.487 319.931,447.767 319.931,449.487 L319.931,470.767 C319.931,472.848 319.851,474.087 319.611,475.448 L323.411,475.448 C323.171,474.008 323.091,472.927 323.091,470.767 L323.091,461.008 M353.169,475.967 C359.609,475.967 363.769,471.487 363.769,464.647 C363.769,457.767 359.649,453.367 353.129,453.367 C346.609,453.367 342.449,457.767 342.449,464.688 C342.449,471.608 346.609,475.967 353.169,475.967 M353.209,455.888 C357.809,455.888 360.689,459.247 360.689,464.647 C360.689,470.047 357.809,473.367 353.129,473.367 C348.449,473.367 345.529,470.047 345.529,464.608 C345.529,459.207 348.449,455.888 353.209,455.888 M382.289,453.888 C380.609,453.608 379.929,453.527 378.729,453.527 C376.809,453.527 375.449,453.927 373.929,454.927 C373.089,455.487 372.489,456.128 371.729,457.367 C371.769,457.087 371.769,456.487 371.769,456.168 L371.769,453.888 L368.449,453.888 C368.649,455.328 368.729,456.408 368.729,458.408 L368.729,470.927 C368.729,472.568 368.649,473.608 368.449,475.448 L372.049,475.448 C371.849,473.888 371.769,472.767 371.769,470.967 L371.769,462.807 C371.929,461.008 372.289,460.047 373.249,458.807 C374.449,457.207 376.129,456.367 378.169,456.367 C379.169,456.367 379.889,456.487 381.409,456.967 L382.289,453.888 M408.149,478.888 L410.309,478.888 L410.309,475.448 C413.309,475.168 414.709,474.807 416.269,473.807 C418.589,472.328 419.789,470.008 419.789,466.888 C419.789,464.207 418.909,462.288 416.909,460.848 C415.549,459.848 413.949,459.247 410.309,458.408 L410.309,447.728 C412.149,448.008 413.069,448.367 414.069,449.328 C415.149,450.288 415.629,451.288 415.949,453.207 L419.189,452.608 C418.669,450.168 418.109,449.008 416.709,447.647 C415.109,446.087 413.549,445.448 410.309,445.087 L410.309,443.087 L408.149,443.087 L408.149,445.047 C405.389,445.367 404.069,445.767 402.629,446.728 C400.469,448.128 399.269,450.408 399.269,453.087 C399.269,455.568 400.389,457.767 402.309,458.967 C403.829,459.927 405.069,460.367 408.149,461.047 L408.149,472.767 C405.909,472.608 404.589,472.047 403.469,470.888 C402.389,469.767 401.949,468.608 401.749,466.288 L398.429,466.807 C398.909,469.807 399.589,471.367 401.029,472.807 C402.669,474.367 404.429,475.047 408.149,475.408 L408.149,478.888 M408.149,458.047 C406.669,457.728 405.989,457.527 405.189,457.168 C403.269,456.247 402.349,454.888 402.349,452.967 C402.349,451.408 403.069,449.927 404.229,449.047 C405.229,448.288 406.189,447.967 408.149,447.728 L408.149,458.047 M410.309,461.448 C413.069,462.128 413.909,462.408 414.709,462.967 C415.949,463.888 416.589,465.168 416.589,466.927 C416.589,468.848 415.829,470.448 414.509,471.408 C413.389,472.247 412.389,472.568 410.309,472.807 L410.309,461.448 M428.549,448.008 C429.709,447.848 430.749,447.767 432.029,447.767 L434.189,447.767 L434.189,470.927 C434.189,472.767 434.109,474.047 433.869,475.448 L437.669,475.448 C437.429,473.967 437.349,472.807 437.349,470.927 L437.349,451.487 C437.349,449.328 437.469,447.288 437.709,444.848 C436.389,445.008 435.749,445.047 434.389,445.047 L431.869,445.047 C430.349,445.047 429.589,445.008 428.549,444.848 L428.549,448.008 M456.255,447.807 L465.655,447.807 C467.535,447.807 468.815,447.888 470.335,448.128 L470.335,444.728 C468.735,444.967 467.815,445.047 465.655,445.047 L457.415,445.047 C455.055,445.047 454.415,445.008 453.175,444.848 C453.255,445.848 453.255,446.008 453.255,446.568 C453.255,447.328 453.215,447.807 453.135,448.967 L452.255,458.008 C452.095,459.728 451.975,460.568 451.655,462.128 L454.655,462.408 C455.095,461.328 455.535,460.767 456.495,460.008 C457.935,458.888 459.695,458.328 461.735,458.328 C465.975,458.328 468.735,461.207 468.735,465.608 C468.735,470.207 465.735,473.247 461.255,473.247 C458.935,473.247 456.935,472.408 455.575,470.888 C454.975,470.207 454.695,469.688 454.295,468.568 L451.015,469.527 C451.975,471.448 452.535,472.288 453.535,473.288 C455.455,475.087 458.055,476.008 461.175,476.008 C467.775,476.008 471.975,471.888 471.975,465.448 C471.975,462.487 471.095,460.128 469.295,458.408 C467.495,456.647 465.015,455.688 462.095,455.688 C459.335,455.688 457.015,456.608 455.095,458.448 C455.335,457.367 455.335,457.367 455.415,456.647 L456.255,447.807 M477.441,471.487 L477.441,475.448 L481.401,475.448 L481.401,471.487 L477.441,471.487 M128.607,535.448 C130.607,535.448 131.928,535.527 133.527,535.688 L133.527,532.328 C132.008,532.527 130.648,532.607 128.648,532.607 L115.887,532.607 C116.367,530.688 116.928,529.607 118.167,527.968 C119.488,526.287 120.768,525.167 123.928,523.047 C128.488,520.008 129.527,519.247 130.727,517.888 C132.288,516.167 133.087,514.247 133.087,512.208 C133.087,507.487 129.208,504.448 123.167,504.448 C119.648,504.448 116.928,505.487 115.128,507.527 C113.807,509.008 113.208,510.408 112.607,513.287 L115.967,513.847 C116.247,511.848 116.607,510.888 117.367,509.807 C118.568,508.087 120.527,507.207 123.167,507.207 C127.247,507.207 129.807,509.168 129.807,512.208 C129.807,514.648 128.488,516.407 124.527,519.088 C119.887,522.247 119.807,522.287 118.408,523.487 C115.887,525.648 114.208,527.848 113.208,530.367 C112.607,531.888 112.488,532.487 112.048,535.648 C113.327,535.487 113.928,535.448 116.447,535.448 L128.607,535.448 M137.193,527.848 C138.513,527.727 139.713,527.688 141.953,527.688 L152.673,527.688 L152.673,531.128 C152.673,532.927 152.593,534.047 152.353,535.448 L155.993,535.448 C155.753,533.968 155.673,533.047 155.673,531.128 L155.673,527.688 L157.153,527.688 C158.873,527.688 159.873,527.768 161.353,527.968 L161.353,524.648 C159.913,524.848 158.873,524.927 157.193,524.927 L155.673,524.927 L155.673,511.807 C155.673,508.647 155.713,507.408 155.913,505.047 L152.913,505.047 C151.993,506.448 151.273,507.448 149.913,509.128 L139.793,521.768 C138.953,522.768 138.033,523.888 137.193,524.848 L137.193,527.848 M152.713,524.968 L140.753,524.968 L149.953,513.367 C151.113,511.888 152.113,510.568 152.953,509.367 C152.753,511.408 152.713,512.688 152.713,514.807 L152.713,524.968 M182.543,535.448 C182.303,534.088 182.223,532.848 182.223,530.927 L182.223,523.047 L191.143,523.047 C197.383,523.047 200.983,519.648 200.983,513.768 C200.983,508.207 197.503,505.047 191.343,505.047 L183.183,505.047 C181.343,505.047 180.223,505.008 178.783,504.927 C179.023,506.607 179.103,507.848 179.103,509.487 L179.103,530.968 C179.103,532.848 179.023,534.008 178.783,535.448 L182.543,535.448 M182.223,520.287 L182.223,507.807 L191.143,507.807 C195.463,507.807 197.783,509.927 197.783,513.927 C197.783,518.008 195.383,520.287 191.143,520.287 L182.223,520.287 M204.972,505.047 L204.972,508.607 L208.852,508.607 L208.852,505.047 L204.972,505.047 M205.092,513.888 C205.292,515.287 205.372,516.487 205.372,518.407 L205.372,530.927 C205.372,532.607 205.292,533.727 205.092,535.448 L208.692,535.448 C208.492,533.888 208.412,532.768 208.412,530.927 L208.412,518.407 C208.412,516.407 208.492,515.287 208.692,513.888 L205.092,513.888 M233.408,525.128 C233.327,524.047 233.167,522.487 233.128,522.047 C232.327,516.688 228.607,513.367 223.448,513.367 C217.448,513.367 213.527,517.847 213.527,524.688 C213.527,531.607 217.488,536.008 223.768,536.008 C226.688,536.008 229.128,535.047 231.008,533.208 C231.927,532.287 232.448,531.568 233.208,529.888 L230.408,528.768 C229.288,531.848 227.048,533.448 223.807,533.448 C221.408,533.448 219.448,532.487 218.168,530.727 C217.087,529.287 216.688,527.807 216.568,525.128 L233.408,525.128 M216.688,522.607 C216.927,521.088 217.128,520.367 217.688,519.367 C218.887,517.128 220.927,515.888 223.367,515.888 C225.288,515.888 226.848,516.487 228.087,517.688 C229.367,518.927 229.967,520.367 230.207,522.607 L216.688,522.607 M256.283,519.568 C255.803,518.407 255.443,517.768 254.883,517.008 C253.163,514.607 250.483,513.328 247.163,513.328 C241.043,513.328 237.043,517.847 237.043,524.768 C237.043,531.607 241.083,535.968 247.363,535.968 C250.603,535.968 253.163,534.807 254.923,532.607 C255.603,531.727 256.003,530.968 256.563,529.527 L253.563,528.727 C253.283,529.688 253.083,530.167 252.683,530.768 C251.643,532.407 249.763,533.328 247.483,533.328 C243.003,533.328 240.123,529.968 240.123,524.688 C240.123,519.328 242.923,515.888 247.323,515.888 C250.283,515.888 252.203,517.367 253.363,520.487 L256.283,519.568 M280.033,525.128 C279.953,524.047 279.793,522.487 279.753,522.047 C278.953,516.688 275.233,513.367 270.073,513.367 C264.073,513.367 260.152,517.847 260.152,524.688 C260.152,531.607 264.112,536.008 270.392,536.008 C273.312,536.008 275.753,535.047 277.633,533.208 C278.552,532.287 279.073,531.568 279.832,529.888 L277.033,528.768 C275.913,531.848 273.672,533.448 270.432,533.448 C268.033,533.448 266.073,532.487 264.793,530.727 C263.712,529.287 263.312,527.807 263.193,525.128 L280.033,525.128 M263.312,522.607 C263.552,521.088 263.753,520.367 264.312,519.367 C265.513,517.128 267.552,515.888 269.992,515.888 C271.913,515.888 273.473,516.487 274.712,517.688 C275.992,518.927 276.592,520.367 276.832,522.607 L263.312,522.607 M283.508,529.607 C283.908,531.247 284.188,531.927 284.788,532.768 C286.268,534.807 289.068,535.888 292.708,535.888 C298.188,535.888 301.588,533.407 301.588,529.407 C301.588,527.768 300.908,526.247 299.668,525.247 C298.468,524.328 297.188,523.847 293.308,522.968 C290.828,522.448 289.788,522.128 288.868,521.607 C287.988,521.128 287.508,520.328 287.508,519.407 C287.508,517.287 289.588,515.807 292.508,515.807 C294.308,515.807 295.748,516.328 296.668,517.328 C297.228,517.888 297.428,518.367 297.668,519.448 L300.828,518.927 C300.308,517.088 299.748,516.167 298.708,515.287 C297.268,514.008 295.148,513.367 292.428,513.367 C289.748,513.367 287.588,514.088 286.188,515.448 C285.068,516.528 284.468,517.888 284.468,519.328 C284.468,521.088 285.228,522.568 286.628,523.528 C287.988,524.448 289.348,524.927 292.548,525.607 C295.508,526.208 296.308,526.448 297.268,527.047 C298.108,527.568 298.508,528.407 298.508,529.527 C298.508,531.888 296.308,533.367 292.828,533.367 C290.788,533.367 289.188,532.888 288.188,531.968 C287.388,531.247 287.068,530.527 286.788,529.047 L283.508,529.607 M323.169,521.008 L332.529,521.008 C334.609,521.008 335.769,521.088 337.089,521.287 L337.089,517.927 C335.609,518.128 334.449,518.208 332.529,518.208 L323.169,518.208 L323.169,507.888 L334.689,507.888 C336.809,507.888 337.969,507.967 339.289,508.168 L339.289,504.768 C337.769,504.967 336.649,505.047 334.689,505.047 L324.089,505.047 C322.169,505.047 321.089,505.008 319.689,504.927 C319.929,506.487 320.009,507.768 320.009,509.487 L320.009,530.768 C320.009,532.848 319.929,534.088 319.689,535.448 L323.489,535.448 C323.249,534.008 323.169,532.927 323.169,530.768 L323.169,521.008 M353.247,535.968 C359.688,535.968 363.848,531.487 363.848,524.648 C363.848,517.768 359.728,513.367 353.207,513.367 C346.688,513.367 342.527,517.768 342.527,524.688 C342.527,531.607 346.688,535.968 353.247,535.968 M353.288,515.888 C357.888,515.888 360.768,519.247 360.768,524.648 C360.768,530.047 357.888,533.367 353.207,533.367 C348.527,533.367 345.607,530.047 345.607,524.607 C345.607,519.208 348.527,515.888 353.288,515.888 M382.367,513.888 C380.688,513.607 380.008,513.528 378.807,513.528 C376.888,513.528 375.527,513.927 374.008,514.927 C373.168,515.487 372.568,516.128 371.807,517.367 C371.848,517.088 371.848,516.487 371.848,516.167 L371.848,513.888 L368.527,513.888 C368.728,515.328 368.807,516.407 368.807,518.407 L368.807,530.927 C368.807,532.568 368.728,533.607 368.527,535.448 L372.128,535.448 C371.927,533.888 371.848,532.768 371.848,530.968 L371.848,522.807 C372.008,521.008 372.367,520.047 373.328,518.807 C374.527,517.208 376.207,516.367 378.247,516.367 C379.247,516.367 379.967,516.487 381.487,516.968 L382.367,513.888 M408.228,538.888 L410.388,538.888 L410.388,535.448 C413.388,535.167 414.788,534.807 416.348,533.807 C418.668,532.328 419.867,530.008 419.867,526.888 C419.867,524.208 418.987,522.287 416.987,520.847 C415.628,519.847 414.027,519.247 410.388,518.407 L410.388,507.728 C412.228,508.008 413.147,508.367 414.147,509.328 C415.228,510.288 415.707,511.288 416.027,513.208 L419.268,512.607 C418.747,510.168 418.188,509.008 416.788,507.647 C415.188,506.087 413.628,505.448 410.388,505.087 L410.388,503.087 L408.228,503.087 L408.228,505.047 C405.467,505.367 404.147,505.768 402.707,506.728 C400.547,508.128 399.348,510.408 399.348,513.088 C399.348,515.568 400.467,517.768 402.388,518.968 C403.908,519.927 405.147,520.367 408.228,521.047 L408.228,532.768 C405.987,532.607 404.668,532.047 403.547,530.888 C402.467,529.768 402.027,528.607 401.828,526.287 L398.508,526.807 C398.987,529.807 399.668,531.367 401.107,532.807 C402.747,534.367 404.508,535.047 408.228,535.407 L408.228,538.888 M408.228,518.047 C406.747,517.727 406.068,517.528 405.268,517.167 C403.348,516.247 402.427,514.888 402.427,512.968 C402.427,511.408 403.147,509.927 404.307,509.047 C405.307,508.288 406.268,507.967 408.228,507.728 L408.228,518.047 M410.388,521.448 C413.147,522.128 413.987,522.407 414.788,522.968 C416.027,523.888 416.668,525.167 416.668,526.927 C416.668,528.848 415.908,530.448 414.587,531.407 C413.467,532.247 412.467,532.568 410.388,532.807 L410.388,521.448 M441.107,535.448 C443.107,535.448 444.427,535.527 446.027,535.688 L446.027,532.328 C444.508,532.527 443.148,532.607 441.148,532.607 L428.388,532.607 C428.867,530.688 429.427,529.607 430.667,527.968 C431.987,526.287 433.268,525.167 436.427,523.047 C440.987,520.008 442.027,519.247 443.227,517.888 C444.788,516.167 445.587,514.247 445.587,512.208 C445.587,507.487 441.708,504.448 435.667,504.448 C432.148,504.448 429.427,505.487 427.628,507.527 C426.307,509.008 425.708,510.408 425.107,513.287 L428.467,513.847 C428.747,511.848 429.107,510.888 429.867,509.807 C431.068,508.087 433.027,507.207 435.667,507.207 C439.747,507.207 442.307,509.168 442.307,512.208 C442.307,514.648 440.987,516.407 437.027,519.088 C432.388,522.247 432.307,522.287 430.908,523.487 C428.388,525.648 426.708,527.848 425.708,530.367 C425.107,531.888 424.987,532.487 424.547,535.648 C425.828,535.487 426.427,535.448 428.948,535.448 L441.107,535.448 M461.573,536.047 C465.253,536.047 468.053,534.648 470.053,531.848 C471.813,529.407 472.853,525.128 472.853,520.287 C472.853,516.968 472.333,513.768 471.333,511.008 C470.853,509.688 470.053,508.448 468.933,507.328 C467.133,505.448 464.573,504.487 461.613,504.487 C457.653,504.487 454.573,506.168 452.653,509.408 C451.253,511.728 450.333,516.047 450.333,520.287 C450.333,523.568 450.853,526.727 451.853,529.527 C452.333,530.888 453.173,532.128 454.253,533.208 C456.133,535.088 458.613,536.047 461.573,536.047 M461.573,507.247 C464.373,507.247 466.533,508.487 467.853,510.888 C468.893,512.768 469.653,516.727 469.653,520.208 C469.653,523.167 469.253,525.807 468.413,528.287 C468.053,529.448 467.413,530.487 466.533,531.407 C465.333,532.648 463.613,533.287 461.613,533.287 C458.893,533.287 456.813,532.128 455.413,529.807 C454.333,527.927 453.533,524.008 453.533,520.287 C453.533,517.367 453.933,514.648 454.773,512.208 C455.093,511.207 455.733,510.207 456.573,509.288 C457.853,507.927 459.493,507.247 461.573,507.247 M477.519,531.487 L477.519,535.448 L481.479,535.448 L481.479,531.487 L477.519,531.487 Z" style="stroke:none;fill-rule:nonzero;fill:#ee7963;fill-opacity:1;"/>
        </g>
        <g id="Shape4">
            <desc shapeID="4" type="0" basicInfo-basicType="1" basicInfo-roundedRectRadius="12" basicInfo-polygonSides="6" basicInfo-starPoints="5" bounding="rect(-80,-29.5,160,59)" text="" font-familyName="Helvetica" font-pixelSize="20" font-bold="0" font-underline="0" font-alignment="1" strokeStyle="0" markerStart="0" markerEnd="0" shadowEnabled="0" shadowOffsetX="0" shadowOffsetY="2" shadowBlur="4" shadowOpacity="160" blurEnabled="0" blurRadius="4" transform="matrix(1,0,0,1,200.5,250)" pers-center="0,0" pers-size="0,0" pers-start="0,0" pers-end="0,0" locked="0" mesh="" flag=""/>
            <path id="shapePath4" d="M120.5,220.5 L280.5,220.5 L280.5,279.5 L120.5,279.5 L120.5,220.5 Z" style="stroke:#323232;stroke-opacity:0;stroke-width:1;stroke-linejoin:miter;stroke-miterlimit:2;stroke-linecap:round;fill-rule:evenodd;fill:#f9cb40;fill-opacity:1;"/>
        </g>
    </g>
    <g id="Layer2" name="Layer 2" opacity="1">
        <g id="Shape5">
            <desc shapeID="5" type="0" basicInfo-basicType="4" basicInfo-roundedRectRadius="12" basicInfo-polygonSides="6" basicInfo-starPoints="5" bounding="rect(-64.5,-32,129,64)" text="" font-familyName="Helvetica" font-pixelSize="20" font-bold="0" font-underline="0" font-alignment="1" strokeStyle="0" markerStart="0" markerEnd="0" shadowEnabled="0" shadowOffsetX="0" shadowOffsetY="2" shadowBlur="4" shadowOpacity="160" blurEnabled="0" blurRadius="4" transform="matrix(0.930232,0,0,1,300.5,352.5)" pers-center="0,0" pers-size="0,0" pers-start="0,0" pers-end="0,0" locked="0" mesh="" flag=""/>
            <path id="shapePath5" d="M240.5,352.5 C240.5,334.827 267.363,320.5 300.5,320.5 C333.637,320.5 360.5,334.827 360.5,352.5 C360.5,370.173 333.637,384.5 300.5,384.5 C267.363,384.5 240.5,370.173 240.5,352.5 Z" style="stroke:#323232;stroke-opacity:0;stroke-width:1;stroke-linejoin:miter;stroke-miterlimit:2;stroke-linecap:round;fill-rule:evenodd;fill:#2c2f44;fill-opacity:1;"/>
        </g>
        <g id="Shape6">
            <desc shapeID="6" type="0" basicInfo-basicType="1" basicInfo-roundedRectRadius="12" basicInfo-polygonSides="6" basicInfo-starPoints="5" bounding="rect(-54,-68.5,108,137)" text="" font-familyName="Helvetica" font-pixelSize="20" font-bold="0" font-underline="0" font-alignment="1" strokeStyle="0" markerStart="0" markerEnd="0" shadowEnabled="0" shadowOffsetX="0" shadowOffsetY="2" shadowBlur="4" shadowOpacity="160" blurEnabled="0" blurRadius="4" transform="matrix(1.11111,0,0,1,300.5,289)" pers-center="0,0" pers-size="0,0" pers-start="0,0" pers-end="0,0" locked="0" mesh="" flag=""/>
            <path id="shapePath6" d="M240.5,220.5 L360.5,220.5 L360.5,357.5 L240.5,357.5 L240.5,220.5 Z" style="stroke:#323232;stroke-opacity:0;stroke-width:1;stroke-linejoin:miter;stroke-miterlimit:2;stroke-linecap:round;fill-rule:evenodd;fill:#2c2f44;fill-opacity:1;"/>
        </g>
        <g id="Shape7">
            <desc shapeID="7" type="0" basicInfo-basicType="4" basicInfo-roundedRectRadius="12" basicInfo-polygonSides="6" basicInfo-starPoints="5" bounding="rect(-59.5,-23.5,119,47)" text="" font-familyName="Helvetica" font-pixelSize="20" font-bold="0" font-underline="0" font-alignment="1" strokeStyle="0" markerStart="0" markerEnd="0" shadowEnabled="0" shadowOffsetX="0" shadowOffsetY="2" shadowBlur="4" shadowOpacity="160" blurEnabled="0" blurRadius="4" transform="matrix(1.0084,0,0,1,300.5,224)" pers-center="0,0" pers-size="0,0" pers-start="0,0" pers-end="0,0" locked="0" mesh="" flag=""/>
            <path id="shapePath7" d="M240.5,224 C240.5,211.021 267.363,200.5 300.5,200.5 C333.637,200.5 360.5,211.021 360.5,224 C360.5,236.979 333.637,247.5 300.5,247.5 C267.363,247.5 240.5,236.979 240.5,224 Z" style="stroke:#323232;stroke-opacity:0;stroke-width:1;stroke-linejoin:miter;stroke-miterlimit:2;stroke-linecap:round;fill-rule:evenodd;fill:#ffffff;fill-opacity:1;"/>
        </g>
        <g id="Shape8">
            <desc shapeID="8" type="0" basicInfo-basicType="4" basicInfo-roundedRectRadius="12" basicInfo-polygonSides="6" basicInfo-starPoints="5" bounding="rect(-31.5,-10,63,20)" text="" font-familyName="Helvetica" font-pixelSize="20" font-bold="0" font-underline="0" font-alignment="1" strokeStyle="0" markerStart="0" markerEnd="0" shadowEnabled="0" shadowOffsetX="0" shadowOffsetY="2" shadowBlur="4" shadowOpacity="160" blurEnabled="0" blurRadius="4" transform="matrix(1.26984,0,0,1.38008,300,224.301)" pers-center="0,0" pers-size="0,0" pers-start="0,0" pers-end="0,0" locked="0" mesh="" flag=""/>
            <path id="shapePath8" d="M260,224.301 C260,216.679 277.909,210.5 300,210.5 C322.091,210.5 340,216.679 340,224.301 C340,231.923 322.091,238.102 300,238.102 C277.909,238.102 260,231.923 260,224.301 Z" style="stroke:#323232;stroke-opacity:0;stroke-width:1;stroke-linejoin:miter;stroke-miterlimit:2;stroke-linecap:round;fill-rule:evenodd;fill:#dc6f5c;fill-opacity:1;"/>
        </g>
        <g id="Shape9">
            <desc shapeID="9" type="0" basicInfo-basicType="4" basicInfo-roundedRectRadius="12" basicInfo-polygonSides="6" basicInfo-starPoints="5" bounding="rect(-64.5,-32,129,64)" text="" font-familyName="Helvetica" font-pixelSize="20" font-bold="0" font-underline="0" font-alignment="1" strokeStyle="0" markerStart="0" markerEnd="0" shadowEnabled="0" shadowOffsetX="0" shadowOffsetY="2" shadowBlur="4" shadowOpacity="160" blurEnabled="0" blurRadius="4" transform="matrix(0.930232,0,0,1,440.5,392.5)" pers-center="0,0" pers-size="0,0" pers-start="0,0" pers-end="0,0" locked="0" mesh="" flag=""/>
            <path id="shapePath9" d="M380.5,392.5 C380.5,374.827 407.363,360.5 440.5,360.5 C473.637,360.5 500.5,374.827 500.5,392.5 C500.5,410.173 473.637,424.5 440.5,424.5 C407.363,424.5 380.5,410.173 380.5,392.5 Z" style="stroke:#323232;stroke-opacity:0;stroke-width:1;stroke-linejoin:miter;stroke-miterlimit:2;stroke-linecap:round;fill-rule:evenodd;fill:#2c2f44;fill-opacity:1;"/>
        </g>
        <g id="Shape10">
            <desc shapeID="10" type="0" basicInfo-basicType="1" basicInfo-roundedRectRadius="12" basicInfo-polygonSides="6" basicInfo-starPoints="5" bounding="rect(-54,-68.5,108,137)" text="" font-familyName="Helvetica" font-pixelSize="20" font-bold="0" font-underline="0" font-alignment="1" strokeStyle="0" markerStart="0" markerEnd="0" shadowEnabled="0" shadowOffsetX="0" shadowOffsetY="2" shadowBlur="4" shadowOpacity="160" blurEnabled="0" blurRadius="4" transform="matrix(1.11111,0,0,1,440.5,329)" pers-center="0,0" pers-size="0,0" pers-start="0,0" pers-end="0,0" locked="0" mesh="" flag=""/>
            <path id="shapePath10" d="M380.5,260.5 L500.5,260.5 L500.5,397.5 L380.5,397.5 L380.5,260.5 Z" style="stroke:#323232;stroke-opacity:0;stroke-width:1;stroke-linejoin:miter;stroke-miterlimit:2;stroke-linecap:round;fill-rule:evenodd;fill:#2c2f44;fill-opacity:1;"/>
        </g>
        <g id="Shape11">
            <desc shapeID="11" type="0" basicInfo-basicType="4" basicInfo-roundedRectRadius="12" basicInfo-polygonSides="6" basicInfo-starPoints="5" bounding="rect(-59.5,-23.5,119,47)" text="" font-familyName="Helvetica" font-pixelSize="20" font-bold="0" font-underline="0" font-alignment="1" strokeStyle="0" markerStart="0" markerEnd="0" shadowEnabled="0" shadowOffsetX="0" shadowOffsetY="2" shadowBlur="4" shadowOpacity="160" blurEnabled="0" blurRadius="4" transform="matrix(1.0084,0,0,1,440.5,264)" pers-center="0,0" pers-size="0,0" pers-start="0,0" pers-end="0,0" locked="0" mesh="" flag=""/>
            <path id="shapePath11" d="M380.5,264 C380.5,251.021 407.363,240.5 440.5,240.5 C473.637,240.5 500.5,251.021 500.5,264 C500.5,276.979 473.637,287.5 440.5,287.5 C407.363,287.5 380.5,276.979 380.5,264 Z" style="stroke:#323232;stroke-opacity:0;stroke-width:1;stroke-linejoin:miter;stroke-miterlimit:2;stroke-linecap:round;fill-rule:evenodd;fill:#ffffff;fill-opacity:1;"/>
        </g>
        <g id="Shape12">
            <desc shapeID="12" type="0" basicInfo-basicType="4" basicInfo-roundedRectRadius="12" basicInfo-polygonSides="6" basicInfo-starPoints="5" bounding="rect(-31.5,-10,63,20)" text="" font-familyName="Helvetica" font-pixelSize="20" font-bold="0" font-underline="0" font-alignment="1" strokeStyle="0" markerStart="0" markerEnd="0" shadowEnabled="0" shadowOffsetX="0" shadowOffsetY="2" shadowBlur="4" shadowOpacity="160" blurEnabled="0" blurRadius="4" transform="matrix(1.26984,0,0,1.38008,440,264.301)" pers-center="0,0" pers-size="0,0" pers-start="0,0" pers-end="0,0" locked="0" mesh="" flag=""/>
            <path id="shapePath12" d="M400,264.301 C400,256.679 417.909,250.5 440,250.5 C462.091,250.5 480,256.679 480,264.301 C480,271.923 462.091,278.102 440,278.102 C417.909,278.102 400,271.923 400,264.301 Z" style="stroke:#323232;stroke-opacity:0;stroke-width:1;stroke-linejoin:miter;stroke-miterlimit:2;stroke-linecap:round;fill-rule:evenodd;fill:#dc6f5c;fill-opacity:1;"/>
        </g>
        <g id="Shape13">
            <desc shapeID="13" type="0" basicInfo-basicType="4" basicInfo-roundedRectRadius="12" basicInfo-polygonSides="6" basicInfo-starPoints="5" bounding="rect(-64.5,-32,129,64)" text="" font-familyName="Helvetica" font-pixelSize="20" font-bold="0" font-underline="0" font-alignment="1" strokeStyle="0" markerStart="0" markerEnd="0" shadowEnabled="0" shadowOffsetX="0" shadowOffsetY="2" shadowBlur="4" shadowOpacity="160" blurEnabled="0" blurRadius="4" transform="matrix(0.930232,0,0,1,160.5,382.5)" pers-center="0,0" pers-size="0,0" pers-start="0,0" pers-end="0,0" locked="0" mesh="" flag=""/>
            <path id="shapePath13" d="M100.5,382.5 C100.5,364.827 127.363,350.5 160.5,350.5 C193.637,350.5 220.5,364.827 220.5,382.5 C220.5,400.173 193.637,414.5 160.5,414.5 C127.363,414.5 100.5,400.173 100.5,382.5 Z" style="stroke:#323232;stroke-opacity:0;stroke-width:1;stroke-linejoin:miter;stroke-miterlimit:2;stroke-linecap:round;fill-rule:evenodd;fill:#2c2f44;fill-opacity:1;"/>
        </g>
        <g id="Shape14">
            <desc shapeID="14" type="0" basicInfo-basicType="1" basicInfo-roundedRectRadius="12" basicInfo-polygonSides="6" basicInfo-starPoints="5" bounding="rect(-54,-68.5,108,137)" text="" font-familyName="Helvetica" font-pixelSize="20" font-bold="0" font-underline="0" font-alignment="1" strokeStyle="0" markerStart="0" markerEnd="0" shadowEnabled="0" shadowOffsetX="0" shadowOffsetY="2" shadowBlur="4" shadowOpacity="160" blurEnabled="0" blurRadius="4" transform="matrix(1.11111,0,0,1,160.5,319)" pers-center="0,0" pers-size="0,0" pers-start="0,0" pers-end="0,0" locked="0" mesh="" flag=""/>
            <path id="shapePath14" d="M100.5,250.5 L220.5,250.5 L220.5,387.5 L100.5,387.5 L100.5,250.5 Z" style="stroke:#323232;stroke-opacity:0;stroke-width:1;stroke-linejoin:miter;stroke-miterlimit:2;stroke-linecap:round;fill-rule:evenodd;fill:#2c2f44;fill-opacity:1;"/>
        </g>
        <g id="Shape15">
            <desc shapeID="15" type="0" basicInfo-basicType="4" basicInfo-roundedRectRadius="12" basicInfo-polygonSides="6" basicInfo-starPoints="5" bounding="rect(-59.5,-23.5,119,47)" text="" font-familyName="Helvetica" font-pixelSize="20" font-bold="0" font-underline="0" font-alignment="1" strokeStyle="0" markerStart="0" markerEnd="0" shadowEnabled="0" shadowOffsetX="0" shadowOffsetY="2" shadowBlur="4" shadowOpacity="160" blurEnabled="0" blurRadius="4" transform="matrix(1.0084,0,0,1,160.5,244)" pers-center="0,0" pers-size="0,0" pers-start="0,0" pers-end="0,0" locked="0" mesh="" flag=""/>
            <path id="shapePath15" d="M100.5,244 C100.5,231.021 127.363,220.5 160.5,220.5 C193.637,220.5 220.5,231.021 220.5,244 C220.5,256.979 193.637,267.5 160.5,267.5 C127.363,267.5 100.5,256.979 100.5,244 Z" style="stroke:#323232;stroke-opacity:0;stroke-width:1;stroke-linejoin:miter;stroke-miterlimit:2;stroke-linecap:round;fill-rule:evenodd;fill:#ffffff;fill-opacity:1;"/>
        </g>
        <g id="Shape16">
            <desc shapeID="16" type="0" basicInfo-basicType="4" basicInfo-roundedRectRadius="12" basicInfo-polygonSides="6" basicInfo-starPoints="5" bounding="rect(-31.5,-10,63,20)" text="" font-familyName="Helvetica" font-pixelSize="20" font-bold="0" font-underline="0" font-alignment="1" strokeStyle="0" markerStart="0" markerEnd="0" shadowEnabled="0" shadowOffsetX="0" shadowOffsetY="2" shadowBlur="4" shadowOpacity="160" blurEnabled="0" blurRadius="4" transform="matrix(1.26984,0,0,1.38008,160.5,244)" pers-center="0,0" pers-size="0,0" pers-start="0,0" pers-end="0,0" locked="0" mesh="" flag=""/>
            <path id="shapePath16" d="M120.5,244 C120.5,236.378 138.409,230.199 160.5,230.199 C182.591,230.199 200.5,236.378 200.5,244 C200.5,251.622 182.591,257.801 160.5,257.801 C138.409,257.801 120.5,251.622 120.5,244 Z" style="stroke:#323232;stroke-opacity:0;stroke-width:1;stroke-linejoin:miter;stroke-miterlimit:2;stroke-linecap:round;fill-rule:evenodd;fill:#dc6f5c;fill-opacity:1;"/>
        </g>
    </g>
</svg>
